<?xml version="1.0" encoding="UTF-8"?>
<svg xmlns="http://www.w3.org/2000/svg" xmlns:xlink="http://www.w3.org/1999/xlink" width="px" height="64px" viewBox="0 0 185 64" version="1.1">
<g id="surface1">
<path style=" stroke:none;fill-rule:evenodd;fill:rgb(0%,73.333333%,82.745098%);fill-opacity:1;" d="M 68.339844 41.375 L 86.347656 41.375 C 88.679688 41.375 90.574219 43.273438 90.574219 45.613281 C 90.574219 47.953125 88.679688 49.847656 86.347656 49.847656 L 58.144531 49.847656 C 56.433594 49.847656 54.894531 48.816406 54.242188 47.234375 C 53.585938 45.648438 53.949219 43.828125 55.15625 42.617188 L 76.152344 21.554688 L 60.253906 21.554688 C 57.921875 21.554688 56.03125 19.660156 56.03125 17.320312 C 56.03125 14.980469 57.921875 13.082031 60.253906 13.082031 L 86.347656 13.082031 C 88.058594 13.082031 89.597656 14.113281 90.25 15.699219 C 90.90625 17.28125 90.542969 19.101562 89.335938 20.316406 Z M 0 45.242188 L 0 17.6875 C 0 15.148438 2.058594 13.082031 4.59375 13.082031 C 7.125 13.082031 9.1875 15.148438 9.1875 17.6875 L 9.1875 45.242188 C 9.1875 47.78125 7.125 49.847656 4.59375 49.847656 C 2.058594 49.847656 0 47.78125 0 45.242188 Z M 96.539062 45.242188 L 96.539062 17.6875 C 96.539062 15.148438 98.601562 13.082031 101.132812 13.082031 C 103.664062 13.082031 105.726562 15.148438 105.726562 17.6875 L 105.726562 45.242188 C 105.726562 47.78125 103.664062 49.847656 101.132812 49.847656 C 98.601562 49.847656 96.539062 47.78125 96.539062 45.242188 Z M 148.347656 31.464844 C 148.347656 21.328125 156.566406 13.082031 166.671875 13.082031 C 176.777344 13.082031 185 21.328125 185 31.464844 C 185 41.601562 176.777344 49.847656 166.671875 49.847656 C 156.566406 49.847656 148.347656 41.601562 148.347656 31.464844 Z M 156.792969 31.464844 C 156.792969 36.929688 161.226562 41.375 166.675781 41.375 C 172.121094 41.375 176.550781 36.929688 176.550781 31.464844 C 176.550781 26 172.121094 21.554688 166.671875 21.554688 C 161.226562 21.554688 156.792969 26 156.792969 31.464844 Z M 130.019531 41.375 C 132.65625 41.375 135.136719 40.34375 137.003906 38.472656 C 138.652344 36.816406 141.328125 36.816406 142.976562 38.472656 C 144.625 40.128906 144.625 42.808594 142.976562 44.464844 C 139.515625 47.9375 134.914062 49.847656 130.019531 49.847656 C 119.914062 49.847656 111.691406 41.601562 111.691406 31.464844 C 111.691406 21.328125 119.914062 13.082031 130.019531 13.082031 C 134.914062 13.082031 139.511719 14.992188 142.972656 18.460938 C 144.625 20.117188 144.625 22.800781 142.976562 24.457031 C 141.328125 26.109375 138.652344 26.109375 137.003906 24.457031 C 135.136719 22.585938 132.65625 21.554688 130.019531 21.554688 C 124.570312 21.554688 120.140625 26 120.140625 31.464844 C 120.140625 36.929688 124.570312 41.375 130.019531 41.375 Z M 0 4.605469 C 0 2.066406 2.058594 0 4.59375 0 C 7.125 0 9.1875 2.066406 9.1875 4.605469 C 9.1875 7.148438 7.125 9.214844 4.59375 9.214844 C 2.058594 9.214844 0 7.148438 0 4.605469 Z M 96.539062 4.605469 C 96.539062 2.066406 98.601562 0 101.132812 0 C 103.664062 0 105.726562 2.066406 105.726562 4.605469 C 105.726562 7.148438 103.664062 9.214844 101.132812 9.214844 C 98.601562 9.214844 96.539062 7.148438 96.539062 4.605469 Z M 24.558594 63.511719 C 23.46875 62.96875 22.636719 62.007812 22.257812 60.847656 C 21.867188 59.691406 21.957031 58.421875 22.503906 57.332031 L 28.34375 45.613281 L 15.457031 19.75 C 14.324219 17.476562 15.246094 14.703125 17.511719 13.566406 C 19.777344 12.429688 22.539062 13.355469 23.671875 15.625 L 33.480469 35.308594 L 43.296875 15.632812 C 44.429688 13.359375 47.191406 12.433594 49.457031 13.570312 C 50.550781 14.117188 51.378906 15.074219 51.761719 16.234375 C 52.148438 17.394531 52.058594 18.660156 51.511719 19.753906 L 30.722656 61.453125 C 29.9375 63.023438 28.363281 64 26.609375 64 C 25.894531 64 25.203125 63.835938 24.558594 63.511719 Z M 24.558594 63.511719 "/>
</g>
</svg>
