<?xml version="1.0"?>
<svg xmlns="http://www.w3.org/2000/svg" xmlns:xlink="http://www.w3.org/1999/xlink" version="1.1" id="Capa_1" x="0px" y="0px" viewBox="0 0 512 512" style="enable-background:new 0 0 512 512;" xml:space="preserve" width="512px" height="512px"><g><path d="M505.878,364.917l-115.12-101.063c0.323-5.529,0.242-4.465,0.242-46.404c45.972-28.648,58.686-65.568,59.23-67.207  c3.232-9.732-3.995-19.809-14.23-19.809h-48.921L350.337,10.629c-2.722-8.874-12.74-13.185-21.025-9.045l-73.582,36.777  L182.728,1.604c-8.292-4.174-18.34,0.137-21.064,9.025l-36.742,119.805H76c-10.224,0-17.466,10.066-14.23,19.809  c0.545,1.639,13.258,38.559,59.23,67.207c0,42.077-0.079,40.9,0.242,46.405L6.123,364.917c-7.176,6.3-6.737,17.635,0.877,23.365  l71.878,54.087l-43.485,43.628c-5.858,5.877-5.858,15.406,0,21.283c5.857,5.877,15.355,5.878,21.213,0l46.515-46.669L127,478.579  c6.627,4.987,16.03,3.639,21-3.01c4.971-6.649,3.627-16.082-3-21.069L39.804,375.342l87.943-77.204  c7.988,24.323,22.667,45.62,41.845,61.69l72.856,143.95c5.54,10.946,21.192,10.978,26.749,0l72.591-143.426  c19.484-16.129,34.391-37.629,42.465-62.214l87.943,77.204L367,454.5c-6.627,4.987-7.971,14.42-3,21.069  c4.97,6.648,14.37,7.998,21,3.01l23.879-17.968l46.515,46.669c5.857,5.877,15.355,5.878,21.213,0c5.858-5.877,5.858-15.406,0-21.283  l-43.485-43.628L505,388.282C512.627,382.543,513.043,371.208,505.878,364.917z M185.122,36.486l63.855,32.151  c4.22,2.125,9.191,2.133,13.416,0.02l64.471-32.222l28.827,93.999H156.309L185.122,36.486z M101.762,160.533  c23.82,0,298.206,0,308.476,0c-7.618,10.036-19.706,22.35-38.224,33.26H139.985C121.467,182.883,109.379,170.569,101.762,160.533z   M255.823,463.725l-39.715-78.47c25.706,7.993,53.517,8.071,79.368,0.125L255.823,463.725z M361,255.846  c0,58.088-47.103,105.346-105,105.346c-57.897,0-105-47.258-105-105.346v-31.955h210V255.846z" data-original="#000000" class="active-path" data-old_color="#000000" fill="#4CAEE9"/></g> </svg>
