<?xml version="1.0" encoding="utf-8"?>
<!-- Generator: Adobe Illustrator 23.0.3, SVG Export Plug-In . SVG Version: 6.00 Build 0)  -->
<svg version="1.1" id="Layer_1" xmlns="http://www.w3.org/2000/svg" xmlns:xlink="http://www.w3.org/1999/xlink" x="0px" y="0px"
	 viewBox="-300 -300 504 504" style="enable-background:new 0 0 504 504;" xml:space="preserve">
<style type="text/css">
	.st0{fill:#FFFFFF;}
	.st1{fill:#00AFEF;}
</style>
<g>
	<g>
		<g>
			<path class="st0" d="M292.7,319.23h-66.5v-57.95c0-4.98,0.88-8.89,2.65-11.72c1.77-2.84,4.88-5.29,9.32-7.37l30.28-15.15v-32.06
				h-18v11.52l-24.25,12.04v-27c0-6.34,1.73-11.26,5.2-14.78c3.47-3.52,8.25-5.28,14.36-5.28h27.16c6.17,0,11.01,1.78,14.52,5.33
				c3.5,3.55,5.26,8.46,5.26,14.73v36.34c0,5.19-0.96,9.2-2.86,12.04c-1.91,2.84-5.29,5.36-10.14,7.57l-29.24,14.84v33.41h42.25
				V319.23z"/>
			<path class="st1" d="M292.7,315.23h-66.5l4,4v-57.95c0-4.2,0.69-7.43,2.05-9.61c1.34-2.15,3.91-4.12,7.62-5.86
				c0.09-0.05,30.38-15.19,30.38-15.19l2.21-1.11v-2.47v-32.06v-4h-4h-18h-4v4v11.52l2.22-3.58l-24.25,12.04l5.78,3.58v-27
				c0-5.29,1.32-9.21,4.05-11.97c2.71-2.75,6.48-4.09,11.52-4.09h27.16c5.1,0,8.92,1.35,11.67,4.14c2.76,2.8,4.11,6.7,4.11,11.92
				v36.34c0,4.35-0.73,7.65-2.18,9.81c-1.48,2.2-4.33,4.28-8.48,6.17l-0.08,0.03l-0.08,0.04l-29.24,14.84l-2.19,1.11v2.46v33.41v4h4
				h42.25l-4-4v23.5L292.7,315.23z M292.7,291.73h-42.25l4,4v-33.41l-2.19,3.57l29.24-14.84l-0.15,0.07
				c5.59-2.55,9.46-5.49,11.81-8.98c2.35-3.5,3.54-8.3,3.54-14.27v-36.34c0-7.33-2.16-13.23-6.41-17.54
				c-4.27-4.33-10.11-6.52-17.36-6.52h-27.16c-7.19,0-12.98,2.18-17.21,6.47c-4.22,4.27-6.36,10.19-6.36,17.59v27v6.45l5.78-2.87
				l24.25-12.04l2.22-1.1v-2.48v-11.52l-4,4h18l-4-4v32.06l2.21-3.58l-30.28,15.15c-5.04,2.36-8.75,5.34-10.92,8.83
				c-2.16,3.47-3.26,8.12-3.26,13.84v57.95v4h4h66.5h4v-4v-23.5v-4H292.7z"/>
		</g>
	</g>
	<g>
		<path d="M199.69,172.48v147.75h-24v-68.57l-18.5,9.32v59.25h-24V172.48h24v62l18.5-9.16v-52.84H199.69z"/>
		<path class="st0" d="M292.47,320.23h-66.5v-57.95c0-4.98,0.88-8.89,2.65-11.72c1.77-2.84,4.88-5.29,9.32-7.37l30.28-15.15v-32.06
			h-18v11.52l-24.25,12.04v-27c0-6.34,1.73-11.26,5.2-14.78c3.47-3.52,8.25-5.28,14.36-5.28h27.16c6.17,0,11.01,1.78,14.52,5.33
			c3.5,3.55,5.26,8.46,5.26,14.73v36.34c0,5.19-0.96,9.2-2.86,12.04c-1.91,2.84-5.29,5.36-10.14,7.57l-29.24,14.84v33.41h42.25
			V320.23z"/>
		<path d="M385.03,172.48v147.75h-24v-68.57l-18.5,9.32v59.25h-24V172.48h24v62l18.5-9.16v-52.84H385.03z"/>
	</g>
	<path class="st1" d="M309.5,312.53c0,6.48-5.25,11.74-11.74,11.74h-72.03c-6.48,0-11.74-5.25-11.74-11.74v-64.56
		c0-6.48,5.25-11.74,11.74-11.74h72.03c6.48,0,11.74,5.26,11.74,11.74V312.53z"/>
	<path class="st0" d="M291.88,236.12c-1.91,2.84-7.56,26.15-12.41,28.36l-29.24-0.16v33.41h42.25v21.5h-67.5v-56.95
		c0-4.98,0.88-8.89,2.65-11.72c1.77-2.84,4.88-5.29,9.32-7.37l31.4-15.2l23.54,7.62 M250.22,208.5"/>
	<path d="M269.56,290.51l-5.22-9.04c2.3-1,3.92-3.29,3.92-5.96c0-3.59-2.91-6.5-6.5-6.5c-3.59,0-6.5,2.91-6.5,6.5
		c0,2.67,1.61,4.96,3.92,5.96l-5.22,9.04H269.56z"/>
</g>
</svg>
