<?xml version="1.0" encoding="UTF-8" standalone="no"?>
<svg
   xmlns:dc="http://purl.org/dc/elements/1.1/"
   xmlns:cc="http://creativecommons.org/ns#"
   xmlns:rdf="http://www.w3.org/1999/02/22-rdf-syntax-ns#"
   xmlns:svg="http://www.w3.org/2000/svg"
   xmlns="http://www.w3.org/2000/svg"
   viewBox="0 0 1066.6667 800"
   height="800"
   width="1066.6667"
   xml:space="preserve"
   id="svg2"
   version="1.1"><metadata
     id="metadata8"><rdf:RDF><cc:Work
         rdf:about=""><dc:format>image/svg+xml</dc:format><dc:type
           rdf:resource="http://purl.org/dc/dcmitype/StillImage" /></cc:Work></rdf:RDF></metadata><defs
     id="defs6"><clipPath
       id="clipPath14"
       clipPathUnits="userSpaceOnUse"><path
         id="path12"
         d="M 0,0 H 14400 V 14400 H 0 Z" /></clipPath><clipPath
       id="clipPath22"
       clipPathUnits="userSpaceOnUse"><path
         id="path20"
         d="M 0,14400 H 14400 V 0 H 0 Z" /></clipPath></defs><g
     clip-path="url(#clipPath14)"
     transform="matrix(1.3333333,0,0,-1.3333333,-9067.3333,9999.3333)"
     id="g10"><g
       id="g16"><g
         clip-path="url(#clipPath22)"
         id="g18"><g
           transform="translate(7147.2383,7077.4834)"
           id="g24"><path
             id="path26"
             style="fill:#231f20;fill-opacity:1;fill-rule:nonzero;stroke:none"
             d="m 0,0 h 25.508 c 19.449,0 29.161,11.487 29.161,34.433 v 176.174 c 0,22.946 -9.712,34.426 -29.161,34.426 l -25.508,0 z m 28.345,281.076 c 19.446,0 34.832,-5.945 46.176,-17.82 11.337,-11.883 17.007,-30.245 17.007,-55.087 V 36.863 c 0,-24.841 -5.67,-43.196 -17.007,-55.086 -11.344,-11.875 -26.73,-17.82 -46.176,-17.82 h -65.611 v 317.119 z" /></g><g
           transform="translate(7302.3564,7118.4033)"
           id="g28"><path
             id="path30"
             style="fill:#231f20;fill-opacity:1;fill-rule:nonzero;stroke:none"
             d="M 0,0 H 49.405 L 24.3,158.75 Z M 42.526,240.156 97.602,-76.963 H 61.555 l -7.282,45.774 h -59.13 l -6.886,-45.774 H -47.794 L 5.671,240.156 Z" /></g><g
           transform="translate(7446.6943,7201.4604)"
           id="g32"><path
             id="path34"
             style="fill:none;stroke:#26a9e0;stroke-width:28.125;stroke-linecap:butt;stroke-linejoin:miter;stroke-miterlimit:4;stroke-dasharray:none;stroke-opacity:1"
             d="M 0,0 H 3.306" /></g><g
           transform="translate(7395.6729,7153.7529)"
           id="g36"><path
             id="path38"
             style="fill:#26a9e0;fill-opacity:1;fill-rule:nonzero;stroke:none"
             d="M 0,0 47.708,47.708 0,95.402 H 40.471 L 88.165,47.708 40.471,0 Z" /></g><g
           transform="translate(7041.9346,7237.061)"
           id="g40"><path
             id="path42"
             style="fill:#231f20;fill-opacity:1;fill-rule:nonzero;stroke:none"
             d="m 0,0 c 0,-22.945 -9.711,-34.425 -29.157,-34.425 h -25.511 v 119.88 h 25.511 C -9.711,85.455 0,73.975 0,51.03 Z m 19.852,103.678 c -11.344,11.876 -26.73,17.821 -46.176,17.821 H -91.935 V 2.716 l 37.127,-37.127 -37.127,-37.141 v -124.069 h 37.267 v 125.145 h 28.344 c 19.446,0 34.832,5.945 46.176,17.82 11.337,11.89 17.008,30.238 17.008,55.087 v 46.161 c 0,24.842 -5.671,43.203 -17.008,55.086" /></g></g></g></g></svg>